<?xml version="1.0" encoding="utf-8"?>
<!-- Generator: Adobe Illustrator 21.1.0, SVG Export Plug-In . SVG Version: 6.00 Build 0)  -->
<svg version="1.1" id="Capa_1" xmlns="http://www.w3.org/2000/svg" xmlns:xlink="http://www.w3.org/1999/xlink" x="0px" y="0px"
	 viewBox="0 0 162 47" style="enable-background:new 0 0 162 47;" xml:space="preserve">
<style type="text/css">
	.st0{fill:#FFFFFF;}
	.st1{fill:#C9002C;}
	.st2{fill:#0C3071;}
</style>
<g id="XMLID_711_">
	<rect id="XMLID_733_" x="0.3" y="0.3" class="st0" width="161.8" height="46.5"/>
	<path id="XMLID_732_" class="st1" d="M158.6,3.8H45.7c0,0,0,0,0,0.1c-4.4,5.5-7.1,12.4-7.1,20c0,7.4,2.5,14.1,6.7,19.5h113.3V3.8z"
		/>
	<path id="XMLID_731_" class="st2" d="M41.2,4.1c0-0.1,0.1-0.2,0.1-0.2H3.9v39.6h37.1c-3.7-5.6-5.9-12.3-5.9-19.5
		C35.1,16.5,37.3,9.7,41.2,4.1"/>
	<g id="XMLID_710_">
		<path id="XMLID_727_" class="st0" d="M17.5,35.7c-4.2-0.7-7.7-3.6-9.2-7.5h11.3v-1.6H9.4c2.2-2.6,3.5-5.9,3.5-9.5
			c0-0.8-0.1-1.6-0.2-2.3l14.3,0c1.6,2.4,2.5,5.3,2.5,8.4c0,1.2-0.1,2.4-0.4,3.5h-8.1v1.6h9.6c-1,2.5-2.8,4.5-5,5.8c0,0,0,0.1,0,0
			c0-0.6-0.2-1.3-0.5-1.7c-0.3-0.4-0.8-0.6-1.3-0.6c-0.7,0-1.3,0.5-1.6,1.1c-0.6,1.7-2.2,2.9-4.1,2.9C17.9,35.8,17.7,35.8,17.5,35.7
			 M18.1,34.5c1.3,0,2.5-0.8,2.9-2c0.4-1.2,1.5-2,2.8-2c0.9,0,1.7,0.4,2.3,1.1c0.1,0.1,0.2,0.3,0.3,0.5c0.9-0.7,1.6-1.6,2.2-2.5
			l-18.2,0c1.6,2.6,4.3,4.4,7.4,4.9h0l0,0c0,0,0,0,0,0C17.9,34.5,18,34.5,18.1,34.5 M14.2,17.1c0,3-0.8,5.8-2.3,8.3h16.3
			c0.1-0.7,0.2-1.5,0.2-2.2c0-2.5-0.7-5-2-7.1l-12.2,0C14.2,16.4,14.2,16.7,14.2,17.1"/>
		<path id="XMLID_726_" class="st0" d="M18.6,13.7c-0.5,0-2.1-0.3-2.6-1c0.7,0.4,2.3-0.1,2.7-0.3c0.3-0.1,1.2-1.2,2.3-0.9V14
			C20.3,13.3,18.9,13.7,18.6,13.7"/>
		<path id="XMLID_725_" class="st0" d="M19.1,23.4c0.5-0.5,0.7-1.1,0.7-1.5c0-0.2,0-0.3-0.1-0.4c-0.3-0.3-1.1-0.1-1.8,0.5v-2.6
			c0.8,0.7,1.6,0.9,1.9,0.6c0.1-0.1,0.1-0.2,0.1-0.4c0-0.4-0.3-0.9-0.7-1.4h2.6c-0.5,0.5-0.7,1.1-0.7,1.5c0,0.2,0,0.3,0.1,0.4
			c0.3,0.3,1.1,0.1,1.8-0.6v2.6c-0.8-0.7-1.6-0.9-1.9-0.6c-0.1,0.1-0.1,0.2-0.1,0.4c0,0.4,0.3,0.9,0.7,1.4H19.1z"/>
	</g>
	<path id="XMLID_721_" class="st0" d="M87.1,11v1.5h0.3c0.5,0,0.8-0.1,0.9-0.2c0.2-0.1,0.2-0.3,0.2-0.5c0-0.2-0.1-0.4-0.3-0.6
		c-0.2-0.1-0.5-0.2-0.9-0.2H87.1z M87.1,8.8V10h0.2c0.3,0,0.5-0.1,0.6-0.2c0.1-0.1,0.2-0.3,0.2-0.5c0-0.2-0.1-0.3-0.2-0.4
		c-0.1-0.1-0.3-0.2-0.6-0.2H87.1z M86,13.5V7.8h0.9c0.5,0,0.9,0,1.2,0.1c0.4,0.1,0.6,0.3,0.8,0.5c0.2,0.2,0.3,0.5,0.3,0.9
		c0,0.2,0,0.4-0.1,0.6c-0.1,0.2-0.2,0.3-0.5,0.5c0.3,0.2,0.6,0.4,0.8,0.6c0.2,0.2,0.2,0.5,0.2,0.9c0,0.3-0.1,0.6-0.3,0.9
		c-0.2,0.3-0.4,0.5-0.6,0.6c-0.3,0.1-0.6,0.2-1.1,0.2H86z"/>
	<path id="XMLID_704_" class="st0" d="M92.7,9.3l-0.8,2h1.6L92.7,9.3z M92.2,7.8h1.1l2.2,5.8h-1.1l-0.5-1.2h-2.4l-0.5,1.2h-1.1
		L92.2,7.8z"/>
	<polygon id="XMLID_703_" class="st0" points="96.3,7.8 97.3,7.8 99.5,11.4 99.5,7.8 100.6,7.8 100.6,13.5 99.6,13.5 97.4,9.9 
		97.4,13.5 96.3,13.5 	"/>
	<path id="XMLID_701_" class="st0" d="M107,8.8l-0.8,0.7c-0.5-0.6-1.1-0.8-1.8-0.8c-0.6,0-1,0.2-1.4,0.6c-0.4,0.4-0.6,0.8-0.6,1.4
		c0,0.4,0.1,0.7,0.2,1c0.2,0.3,0.4,0.5,0.7,0.7c0.3,0.2,0.6,0.3,1,0.3c0.3,0,0.6-0.1,0.9-0.2c0.3-0.1,0.6-0.3,0.9-0.6l0.7,0.8
		c-0.4,0.4-0.8,0.7-1.2,0.9c-0.4,0.2-0.8,0.2-1.3,0.2c-0.9,0-1.6-0.3-2.2-0.9c-0.6-0.6-0.9-1.3-0.9-2.2c0-0.6,0.1-1.1,0.4-1.5
		c0.3-0.4,0.6-0.8,1.1-1.1c0.5-0.3,1-0.4,1.6-0.4c0.5,0,0.9,0.1,1.4,0.3C106.3,8.1,106.7,8.4,107,8.8"/>
	<path id="XMLID_698_" class="st0" d="M110.6,8.7c-0.5,0-1,0.2-1.3,0.6c-0.4,0.4-0.5,0.8-0.5,1.4c0,0.6,0.2,1.1,0.7,1.5
		c0.4,0.3,0.8,0.4,1.2,0.4c0.5,0,1-0.2,1.3-0.6c0.4-0.4,0.5-0.8,0.5-1.4c0-0.6-0.2-1-0.6-1.4C111.6,8.9,111.1,8.7,110.6,8.7
		 M110.6,7.6c0.8,0,1.5,0.3,2.1,0.9c0.6,0.6,0.9,1.3,0.9,2.2c0,0.8-0.3,1.6-0.9,2.1c-0.6,0.6-1.3,0.9-2.1,0.9
		c-0.9,0-1.6-0.3-2.2-0.9c-0.6-0.6-0.9-1.3-0.9-2.1c0-0.6,0.1-1.1,0.4-1.5c0.3-0.5,0.6-0.8,1.1-1.1C109.6,7.7,110.1,7.6,110.6,7.6"
		/>
	<path id="XMLID_697_" class="st0" d="M61.2,18.9l-2,1.9c-1.3-1.4-2.9-2.1-4.5-2.1c-1.4,0-2.6,0.5-3.6,1.5c-1,1-1.5,2.2-1.5,3.6
		c0,1,0.2,1.9,0.6,2.6c0.4,0.8,1,1.4,1.8,1.8c0.8,0.4,1.7,0.7,2.6,0.7c0.8,0,1.6-0.2,2.2-0.5c0.7-0.3,1.4-0.9,2.2-1.7l1.9,2
		c-1.1,1.1-2.1,1.8-3.1,2.2c-1,0.4-2.1,0.6-3.3,0.6c-2.3,0-4.2-0.7-5.7-2.2c-1.5-1.5-2.2-3.3-2.2-5.6c0-1.5,0.3-2.8,1-4
		c0.7-1.2,1.6-2.1,2.9-2.8c1.3-0.7,2.6-1,4-1c1.2,0,2.4,0.3,3.5,0.8C59.4,17.2,60.4,17.9,61.2,18.9"/>
	<path id="XMLID_676_" class="st0" d="M70.7,18.6c-1.4,0-2.5,0.5-3.5,1.4c-0.9,1-1.4,2.2-1.4,3.7c0,1.7,0.6,3,1.8,3.9
		c0.9,0.7,2,1.1,3.2,1.1c1.3,0,2.5-0.5,3.4-1.5c0.9-1,1.4-2.2,1.4-3.6c0-1.4-0.5-2.6-1.4-3.6C73.2,19.1,72.1,18.6,70.7,18.6
		 M70.7,15.9c2.1,0,3.9,0.8,5.4,2.3c1.5,1.5,2.3,3.4,2.3,5.6c0,2.2-0.7,4-2.2,5.5c-1.5,1.5-3.3,2.3-5.4,2.3c-2.2,0-4.1-0.8-5.6-2.3
		c-1.5-1.5-2.2-3.4-2.2-5.5c0-1.4,0.3-2.7,1-3.9c0.7-1.2,1.6-2.1,2.8-2.8C68,16.2,69.3,15.9,70.7,15.9"/>
	<polygon id="XMLID_675_" class="st0" points="81.1,16.3 83.9,16.3 83.9,28.4 88.1,28.4 88.1,31.2 81.1,31.2 	"/>
	<path id="XMLID_671_" class="st0" d="M90.1,16.3h2.8v9.6c0,0.8,0.1,1.4,0.2,1.8c0.1,0.3,0.4,0.6,0.7,0.8c0.3,0.2,0.7,0.3,1.2,0.3
		c0.5,0,0.9-0.1,1.3-0.3c0.4-0.2,0.6-0.5,0.8-0.9c0.1-0.4,0.2-1,0.2-2v-9.3h2.8v8.9c0,1.5-0.1,2.5-0.3,3.1c-0.2,0.6-0.5,1.1-1,1.7
		c-0.5,0.5-1,0.9-1.7,1.2c-0.6,0.3-1.3,0.4-2.2,0.4c-1.1,0-2-0.2-2.8-0.7c-0.8-0.5-1.4-1.1-1.7-1.9c-0.3-0.7-0.5-2-0.5-3.8V16.3z"/>
	<polyline id="XMLID_670_" class="st0" points="118.9,28.3 119.4,31.2 116.6,31.2 115,21.7 111.9,31.2 109.4,31.2 106.2,21.7 
		104.6,31.2 101.8,31.2 104.5,16.3 107.2,16.3 110.6,26.6 114.1,16.3 116.8,16.3 118.9,28.3 	"/>
	<path id="XMLID_659_" class="st0" d="M124.6,24.6v3.8h0.7c1.2,0,2-0.1,2.4-0.4c0.4-0.3,0.6-0.7,0.6-1.3c0-0.6-0.2-1.1-0.7-1.5
		c-0.5-0.4-1.3-0.6-2.4-0.6H124.6z M124.6,19v3.1h0.6c0.7,0,1.2-0.1,1.6-0.4c0.3-0.3,0.5-0.7,0.5-1.2c0-0.5-0.2-0.8-0.5-1.1
		c-0.3-0.3-0.8-0.4-1.5-0.4H124.6z M121.8,31.2V16.3h2.4c1.4,0,2.4,0.1,3,0.3c0.9,0.2,1.6,0.7,2.1,1.3c0.5,0.6,0.8,1.4,0.8,2.3
		c0,0.6-0.1,1.1-0.4,1.5c-0.2,0.5-0.6,0.9-1.2,1.3c0.9,0.4,1.6,1,2,1.6c0.4,0.6,0.6,1.4,0.6,2.3c0,0.8-0.2,1.6-0.7,2.3
		c-0.4,0.7-1,1.2-1.7,1.5c-0.7,0.3-1.6,0.5-2.8,0.5H121.8z"/>
	<rect id="XMLID_537_" x="133.4" y="16.3" class="st0" width="2.8" height="14.9"/>
	<path id="XMLID_456_" class="st0" d="M145.6,20.2l-2,5.1h4L145.6,20.2z M144.2,16.3h2.9l5.7,14.9h-2.9l-1.2-3.1h-6.1l-1.2,3.1h-3
		L144.2,16.3z"/>
	<path id="XMLID_454_" class="st0" d="M38.5,23.7c0-7.6,2.7-14.6,7.1-20h-4.4c-3.9,5.7-6.2,12.6-6.2,20c0,7.3,2.2,14.1,6,19.8h4.4
		C41,38.1,38.5,31.2,38.5,23.7"/>
</g>
</svg>
